<?xml version="1.0" standalone="no"?><!DOCTYPE svg PUBLIC "-//W3C//DTD SVG 1.1//EN" "http://www.w3.org/Graphics/SVG/1.1/DTD/svg11.dtd"><svg xmlns:xlink="http://www.w3.org/1999/xlink" version="1.1" style="font-family:'lucida grande', 'lucida sans unicode', arial, helvetica, sans-serif;font-size:12px;" xmlns="http://www.w3.org/2000/svg" width="600" height="400"><desc>Created with Highcharts 4.2.7</desc><defs><clipPath id="highcharts-13"><rect x="1" y="1" width="578" height="296"></rect></clipPath></defs><rect x="10" y="36" width="580" height="298" fill="#ffffff"></rect><rect x="10" y="36" width="580" height="298" stroke="#026FC1" stroke-width="2" fill="none"></rect><g class="highcharts-series-group"><g class="highcharts-series highcharts-series-0" transform="translate(10,36) scale(1 1)"><path fill="#dfc400" d="M 299.9747445227418 24.000002571932015 A 124 124 0 0 1 412.24196662954245 200.70427807239824 L 300 148 A 0 0 0 0 0 300 148 Z" stroke="#FFFFFF" stroke-width="1" stroke-linejoin="round" transform="translate(0,0)"></path><path fill="#c1bbb9" d="M 412.18920623927545 200.81649366818397 A 124 124 0 0 1 269.2974393431136 268.1388894950765 L 300 148 A 0 0 0 0 0 300 148 Z" stroke="#FFFFFF" stroke-width="1" stroke-linejoin="round" transform="translate(0,0)"></path><path fill="#9a4d11" d="M 269.1773158249207 268.108126870097 A 124 124 0 0 1 188.8670752830057 203.00430023049904 L 300 148 A 0 0 0 0 0 300 148 Z" stroke="#FFFFFF" stroke-width="1" stroke-linejoin="round" transform="translate(0,0)"></path><path fill="#2fd611" d="M 188.81212655840034 202.8931398221564 A 124 124 0 0 1 199.6155223450121 75.20606724502902 L 300 148 A 0 0 0 0 0 300 148 Z" stroke="#FFFFFF" stroke-width="1" stroke-linejoin="round" transform="translate(0,0)"></path><path fill="#b53fe3" d="M 199.6883664578694 75.10571918106814 A 124 124 0 0 1 299.8277664876791 24.000119614504328 L 300 148 A 0 0 0 0 0 300 148 Z" stroke="#FFFFFF" stroke-width="1" stroke-linejoin="round" transform="translate(0,0)"></path></g><g class="highcharts-markers highcharts-series-0" transform="translate(10,36) scale(1 1)"></g></g><text x="300" text-anchor="middle" class="highcharts-title" style="color:#000000;font-size:10px;font-family:'arial', sans-serif;fill:#000000;width:536px;" y="17"><tspan>Allocation of minting revenue</tspan></text><g class="highcharts-data-labels highcharts-series-0" transform="translate(10,36) scale(1 1)" opacity="1"><path fill="none" d="M 435.0265005273103 65.48267357323452 C 430.0265005273103 65.48267357323452 423.27187712329425 69.7692879330665 413.9842699427721 75.66338267783546 L 404.6966627622499 81.55747742260442" stroke="#dfc400" stroke-width="1"></path><path fill="none" d="M 370.57001090102113 287.343366079767 C 365.57001090102113 287.343366079767 362.1637765685005 280.1047496600388 357.48020436128473 270.1516520829126 L 352.79663215406896 260.19855450578643" stroke="#c1bbb9" stroke-width="1"></path><path fill="none" d="M 197.95938383745317 267.5789229538101 C 202.95938383745317 267.5789229538101 208.0004548069361 261.36703085231346 214.93192738997516 252.8256792127556 L 221.86339997301422 244.28432757319774" stroke="#9a4d11" stroke-width="1"></path><path fill="none" d="M 141.55367841073277 134.95291639012063 C 146.55367841073277 134.95291639012063 154.52491589588954 135.63068696725722 165.48536743798005 136.56262151082004 L 176.44581898007056 137.49455605438285" stroke="#2fd611" stroke-width="1"></path><path fill="none" d="M 225.08546304010986 10.7849952749913 C 230.08546304010986 10.7849952749913 233.71738703802626 17.91304746849825 238.71128253516127 27.714119234570298 L 243.7051780322963 37.515191000642346" stroke="#b53fe3" stroke-width="1"></path><g style="cursor:pointer;" transform="translate(440,55)"><text x="5" style="font-size:10px;font-weight:bold;font-family:'arial', sans-serif;color:#000;text-shadow:none;fill:#000;text-rendering:geometricprecision;" y="15"><tspan>Gold ticket rewards: 32.0%</tspan></text></g><g style="cursor:pointer;" transform="translate(376,277)"><text x="5" style="font-size:10px;font-weight:bold;font-family:'arial', sans-serif;color:#000;text-shadow:none;fill:#000;text-rendering:geometricprecision;" y="15"><tspan>Silver ticket rewards: 22.0%</tspan></text></g><g style="cursor:pointer;" transform="translate(45,258)"><text x="5" style="font-size:10px;font-weight:bold;font-family:'arial', sans-serif;color:#000;text-shadow:none;fill:#000;text-rendering:geometricprecision;" y="15"><tspan>Bronze ticket rewards: 13.7%</tspan></text></g><g style="cursor:pointer;" transform="translate(3,125)"><text x="5" style="font-size:10px;font-weight:bold;font-family:'arial', sans-serif;color:#000;text-shadow:none;fill:#000;text-rendering:geometricprecision;" y="15"><tspan>Next pot allocation: 17.3%</tspan></text></g><g style="cursor:pointer;" transform="translate(101,1)"><text x="5" style="font-size:10px;font-weight:bold;font-family:'arial', sans-serif;color:#000;text-shadow:none;fill:#000;text-rendering:geometricprecision;" y="15"><tspan>Team allocation: 15.0%</tspan></text></g></g><g class="highcharts-legend" transform="translate(62,346)"><g><g><g class="highcharts-legend-item" transform="translate(8,3)"><text x="21" style="color:#333;font-size:9pt;font-weight:normal;cursor:pointer;font-family:'lucida grande','lucida sans unicode',arial,helvetica,sans-serif;text-transform:none;fill:#333;" text-anchor="start" y="15"><tspan>Gold ticket rewards</tspan></text><rect x="0" y="4" width="16" height="12" fill="#dfc400"></rect></g><g class="highcharts-legend-item" transform="translate(162,3)"><text x="21" y="15" style="color:#333;font-size:9pt;font-weight:normal;cursor:pointer;font-family:'lucida grande','lucida sans unicode',arial,helvetica,sans-serif;text-transform:none;fill:#333;" text-anchor="start"><tspan>Silver ticket rewards</tspan></text><rect x="0" y="4" width="16" height="12" fill="#c1bbb9"></rect></g><g class="highcharts-legend-item" transform="translate(320.140625,3)"><text x="21" y="15" style="color:#333;font-size:9pt;font-weight:normal;cursor:pointer;font-family:'lucida grande','lucida sans unicode',arial,helvetica,sans-serif;text-transform:none;fill:#333;" text-anchor="start"><tspan>Bronze ticket rewards</tspan></text><rect x="0" y="4" width="16" height="12" fill="#9a4d11"></rect></g><g class="highcharts-legend-item" transform="translate(8,17)"><text x="21" y="15" style="color:#333;font-size:9pt;font-weight:normal;cursor:pointer;font-family:'lucida grande','lucida sans unicode',arial,helvetica,sans-serif;text-transform:none;fill:#333;" text-anchor="start"><tspan>Next pot allocation</tspan></text><rect x="0" y="4" width="16" height="12" fill="#2fd611"></rect></g><g class="highcharts-legend-item" transform="translate(159.890625,17)"><text x="21" y="15" style="color:#333;font-size:9pt;font-weight:normal;cursor:pointer;font-family:'lucida grande','lucida sans unicode',arial,helvetica,sans-serif;text-transform:none;fill:#333;" text-anchor="start"><tspan>Team allocation</tspan></text><rect x="0" y="4" width="16" height="12" fill="#b53fe3"></rect></g></g></g></g><g class="highcharts-tooltip" display="none" style="cursor:default;padding:0;pointer-events:none;white-space:nowrap;" transform="translate(0,0)"><path fill="none" d="M 3.5 0.5 L 13.5 0.5 C 16.5 0.5 16.5 0.5 16.5 3.5 L 16.5 13.5 C 16.5 16.5 16.5 16.5 13.5 16.5 L 3.5 16.5 C 0.5 16.5 0.5 16.5 0.5 13.5 L 0.5 3.5 C 0.5 0.5 0.5 0.5 3.5 0.5"  stroke="black" stroke-opacity="0.049999999999999996" stroke-width="5" transform="translate(1, 1)"></path><path fill="none" d="M 3.5 0.5 L 13.5 0.5 C 16.5 0.5 16.5 0.5 16.5 3.5 L 16.5 13.5 C 16.5 16.5 16.5 16.5 13.5 16.5 L 3.5 16.5 C 0.5 16.5 0.5 16.5 0.5 13.5 L 0.5 3.5 C 0.5 0.5 0.5 0.5 3.5 0.5"  stroke="black" stroke-opacity="0.09999999999999999" stroke-width="3" transform="translate(1, 1)"></path><path fill="none" d="M 3.5 0.5 L 13.5 0.5 C 16.5 0.5 16.5 0.5 16.5 3.5 L 16.5 13.5 C 16.5 16.5 16.5 16.5 13.5 16.5 L 3.5 16.5 C 0.5 16.5 0.5 16.5 0.5 13.5 L 0.5 3.5 C 0.5 0.5 0.5 0.5 3.5 0.5"  stroke="black" stroke-opacity="0.15" stroke-width="1" transform="translate(1, 1)"></path><path fill="rgb(249, 249, 249)" fill-opacity=" .85" d="M 3.5 0.5 L 13.5 0.5 C 16.5 0.5 16.5 0.5 16.5 3.5 L 16.5 13.5 C 16.5 16.5 16.5 16.5 13.5 16.5 L 3.5 16.5 C 0.5 16.5 0.5 16.5 0.5 13.5 L 0.5 3.5 C 0.5 0.5 0.5 0.5 3.5 0.5"></path><text x="8" style="font-size:12px;color:#000000;fill:#000000;" y="20"></text></g><text x="590" text-anchor="end" style="cursor:pointer;color:#909090;font-size:9px;fill:#909090;" y="395">meta-chart.com</text></svg>